<svg xmlns="http://www.w3.org/2000/svg" xmlns:xlink="http://www.w3.org/1999/xlink" version="1.1" x="0px" y="0px" viewBox="0 0 100 125" enable-background="new 0 0 100 100" xml:space="preserve"><g><path fill="#000000" d="M23.767,68.401c-0.894,0.169-1.481,1.031-1.312,1.925c0.15,0.791,0.84,1.342,1.617,1.342   c0.102,0,0.205-0.01,0.309-0.03l8.089-1.107l6.43-2.544l-8.708-1.234L23.767,68.401z"/><path fill="#000000" d="M69.75,63.517c-0.655-2.352-2.249-5.667-4.025-8.065c-0.002-0.028-0.003-0.049-0.011-0.073   c0,0-0.184-0.129-0.392-0.353c-0.475-0.6-0.939-1.126-1.5-1.543v0.001c-1.863-2.051-4.771-5.099-5.616-5.667   c-1.299-0.873-7.78-4.395-7.78-4.395c-0.251-0.205-0.536-0.339-0.83-0.41c5.678-0.711,10.923-1.771,14.918-3.026   c5.013-1.574,7.354-3.204,7.157-4.984c-0.121-1.081-1.104-1.882-3.004-2.454c-1.516-0.454-3.604-0.766-6.206-0.924   c-0.492-0.033-0.917,0.344-0.947,0.836c-0.027,0.492,0.346,0.916,0.838,0.945c6.14,0.374,7.512,1.509,7.544,1.793   c0.027,0.25-0.896,1.507-5.916,3.084c-4.298,1.349-10.1,2.473-16.335,3.164c-6.235,0.691-12.142,0.864-16.631,0.488   c-5.245-0.439-6.421-1.463-6.447-1.712c-0.011-0.095,0.224-0.6,1.566-1.341c0.431-0.238,0.588-0.781,0.35-1.212   c-0.238-0.431-0.782-0.588-1.213-0.35c-1.788,0.988-2.599,2.002-2.478,3.099c0.197,1.78,2.838,2.858,8.073,3.296   c1.598,0.134,3.367,0.2,5.262,0.2c3.175,0,6.703-0.187,10.364-0.552l1.871,6.775c0,0-1.196,2.27-6.52,3.976   c-0.519-0.875-0.313-4.723-0.313-4.723l3.355-1.688c0.914-0.374,1.351-1.418,0.978-2.331c-0.375-0.912-1.417-1.35-2.332-0.976   c0,0-5.512,1.498-5.948,2.14c-0.437,0.642-1.092,9.229-0.688,9.829c0.402,0.6,3.522,2.604,3.522,2.604l-6.226-0.634l-2.933-6.359   c-0.311-0.908-1.298-1.392-2.206-1.081c-0.907,0.31-1.393,1.297-1.082,2.206l1.915,6.564l-0.079-0.061   c0.268,0.833,0.631,1.829,0.943,2.175c0.569,0.63,9.708,2.508,9.708,2.508s-9.957-0.526-10.777-1.405   c-0.541-0.578-1.284-3.06-1.729-4.688l-5.552-3.807c-0.807-0.515-1.881-0.278-2.396,0.527c-0.517,0.809-0.28,1.883,0.527,2.398   l9.533,8.272l2.404,0.324l-0.001,0.002l10.426,1.409l0.07,0.01l2.375,0.319c1.571,0.316,6.019,1.278,8.778,2.54   c3.392,1.553,3.755,1.272,5.636,4.53c1.882,3.258,2.75,16.949,2.75,16.949s10.001-0.473,15.209-4.656   C77.327,85.918,70.623,66.635,69.75,63.517z M52.355,49.982c-1.238-0.153-1.84-0.441-1.84-0.441l-0.336-1.215   C50.898,48.857,51.677,49.444,52.355,49.982z M54.757,56.889c-2.025,2.077-7.006,0.425-7.006,0.425s-3.231-1.499-4.914-2.474   l7.151-1.978l0.752-0.208l3.474-0.955C54.975,52.78,55.994,55.199,54.757,56.889z"/><path fill="#000000" d="M44.532,34.653l1.612-0.445c8.903-2.459,7.853-9.542,6.539-13.366c-0.37-0.942-0.544-1.492-1.085-2.522   c-0.54-1.029-2.309-3.601-4.116-2.365c-1.807,1.237,0.399,3.964,0.565,4.225c2.561,4.031,1.764,10.581-8.29,5.624   c-3.698-1.824-3.8,5.325-5.158,6.428C36.478,34.519,39.542,36.031,44.532,34.653z"/><path fill="#000000" d="M44.909,37.639l0.648,2.343c0.691-0.064,1.387-0.134,2.088-0.213c0.056-0.006,0.112-0.013,0.167-0.019   l-0.748-2.707c21.122-5.832,1.905-29.594,1.905-29.594L28.31,13.154C28.31,13.154,24.004,43.412,44.909,37.639z M29.809,14.364   l18.356-5.068c0,0,16.737,21.124-1.61,26.19l-1.788,0.494C26.702,40.969,29.809,14.364,29.809,14.364z"/></g><text x="0" y="115" fill="#000000" font-size="5px" font-weight="bold" font-family="'Helvetica Neue', Helvetica, Arial-Unicode, Arial, Sans-serif">Created by Siwat Vatatiyaporn</text><text x="0" y="120" fill="#000000" font-size="5px" font-weight="bold" font-family="'Helvetica Neue', Helvetica, Arial-Unicode, Arial, Sans-serif">from the Noun Project</text></svg>